<mxfile host="Electron" agent="Mozilla/5.0 (Windows NT 10.0; Win64; x64) AppleWebKit/537.36 (KHTML, like Gecko) draw.io/24.7.5 Chrome/126.0.6478.183 Electron/31.3.0 Safari/537.36" version="24.7.5">
  <diagram name="Page-1" id="mM509Y4ktthRl-mzauLd">
    <mxGraphModel dx="1354" dy="704" grid="1" gridSize="10" guides="1" tooltips="1" connect="1" arrows="1" fold="1" page="1" pageScale="1" pageWidth="850" pageHeight="1100" math="0" shadow="0">
      <root>
        <mxCell id="0" />
        <mxCell id="1" parent="0" />
        <mxCell id="pquyDXdbb19FtTBMJt0e-13" value="" style="edgeStyle=orthogonalEdgeStyle;rounded=0;orthogonalLoop=1;jettySize=auto;html=1;" edge="1" parent="1" source="pquyDXdbb19FtTBMJt0e-1" target="pquyDXdbb19FtTBMJt0e-2">
          <mxGeometry relative="1" as="geometry" />
        </mxCell>
        <mxCell id="pquyDXdbb19FtTBMJt0e-1" value="Start" style="ellipse;whiteSpace=wrap;html=1;" vertex="1" parent="1">
          <mxGeometry x="305" y="40" width="120" height="60" as="geometry" />
        </mxCell>
        <mxCell id="pquyDXdbb19FtTBMJt0e-14" value="" style="edgeStyle=orthogonalEdgeStyle;rounded=0;orthogonalLoop=1;jettySize=auto;html=1;" edge="1" parent="1" source="pquyDXdbb19FtTBMJt0e-2" target="pquyDXdbb19FtTBMJt0e-3">
          <mxGeometry relative="1" as="geometry" />
        </mxCell>
        <mxCell id="pquyDXdbb19FtTBMJt0e-2" value="Initialize Game Variables" style="rounded=0;whiteSpace=wrap;html=1;" vertex="1" parent="1">
          <mxGeometry x="305" y="150" width="120" height="50" as="geometry" />
        </mxCell>
        <mxCell id="pquyDXdbb19FtTBMJt0e-15" value="" style="edgeStyle=orthogonalEdgeStyle;rounded=0;orthogonalLoop=1;jettySize=auto;html=1;" edge="1" parent="1" source="pquyDXdbb19FtTBMJt0e-3" target="pquyDXdbb19FtTBMJt0e-4">
          <mxGeometry relative="1" as="geometry" />
        </mxCell>
        <mxCell id="pquyDXdbb19FtTBMJt0e-3" value="Display Question" style="rounded=0;whiteSpace=wrap;html=1;" vertex="1" parent="1">
          <mxGeometry x="305" y="260" width="120" height="50" as="geometry" />
        </mxCell>
        <mxCell id="pquyDXdbb19FtTBMJt0e-16" value="" style="edgeStyle=orthogonalEdgeStyle;rounded=0;orthogonalLoop=1;jettySize=auto;html=1;" edge="1" parent="1" source="pquyDXdbb19FtTBMJt0e-4" target="pquyDXdbb19FtTBMJt0e-5">
          <mxGeometry relative="1" as="geometry" />
        </mxCell>
        <mxCell id="pquyDXdbb19FtTBMJt0e-4" value="Get Player Answer" style="shape=parallelogram;perimeter=parallelogramPerimeter;whiteSpace=wrap;html=1;fixedSize=1;" vertex="1" parent="1">
          <mxGeometry x="300" y="360" width="130" height="50" as="geometry" />
        </mxCell>
        <mxCell id="pquyDXdbb19FtTBMJt0e-18" value="" style="edgeStyle=orthogonalEdgeStyle;rounded=0;orthogonalLoop=1;jettySize=auto;html=1;entryX=0.5;entryY=0;entryDx=0;entryDy=0;exitX=1;exitY=0.5;exitDx=0;exitDy=0;" edge="1" parent="1" source="pquyDXdbb19FtTBMJt0e-5" target="pquyDXdbb19FtTBMJt0e-7">
          <mxGeometry relative="1" as="geometry">
            <mxPoint x="520" y="506" as="sourcePoint" />
            <mxPoint x="535" y="505" as="targetPoint" />
          </mxGeometry>
        </mxCell>
        <mxCell id="pquyDXdbb19FtTBMJt0e-21" value="" style="edgeStyle=orthogonalEdgeStyle;rounded=0;orthogonalLoop=1;jettySize=auto;html=1;entryX=0.5;entryY=0;entryDx=0;entryDy=0;" edge="1" parent="1" source="pquyDXdbb19FtTBMJt0e-5" target="pquyDXdbb19FtTBMJt0e-6">
          <mxGeometry relative="1" as="geometry">
            <mxPoint x="195" y="505" as="targetPoint" />
          </mxGeometry>
        </mxCell>
        <mxCell id="pquyDXdbb19FtTBMJt0e-5" value="Is answer correct?" style="rhombus;whiteSpace=wrap;html=1;" vertex="1" parent="1">
          <mxGeometry x="300" y="450" width="130" height="110" as="geometry" />
        </mxCell>
        <mxCell id="pquyDXdbb19FtTBMJt0e-33" value="" style="edgeStyle=orthogonalEdgeStyle;rounded=0;orthogonalLoop=1;jettySize=auto;html=1;entryX=0;entryY=0.5;entryDx=0;entryDy=0;exitX=0.5;exitY=1;exitDx=0;exitDy=0;" edge="1" parent="1" source="pquyDXdbb19FtTBMJt0e-6" target="pquyDXdbb19FtTBMJt0e-8">
          <mxGeometry relative="1" as="geometry">
            <mxPoint x="270" y="760" as="targetPoint" />
            <Array as="points">
              <mxPoint x="170" y="670" />
              <mxPoint x="271" y="670" />
              <mxPoint x="271" y="675" />
            </Array>
          </mxGeometry>
        </mxCell>
        <mxCell id="pquyDXdbb19FtTBMJt0e-6" value="Update Score" style="rounded=0;whiteSpace=wrap;html=1;" vertex="1" parent="1">
          <mxGeometry x="110" y="580" width="120" height="60" as="geometry" />
        </mxCell>
        <mxCell id="pquyDXdbb19FtTBMJt0e-29" value="" style="edgeStyle=orthogonalEdgeStyle;rounded=0;orthogonalLoop=1;jettySize=auto;html=1;exitX=0.5;exitY=1;exitDx=0;exitDy=0;" edge="1" parent="1" source="pquyDXdbb19FtTBMJt0e-7" target="pquyDXdbb19FtTBMJt0e-8">
          <mxGeometry relative="1" as="geometry">
            <mxPoint x="430" y="750" as="targetPoint" />
          </mxGeometry>
        </mxCell>
        <mxCell id="pquyDXdbb19FtTBMJt0e-7" value="Display Correct answer" style="rounded=0;whiteSpace=wrap;html=1;" vertex="1" parent="1">
          <mxGeometry x="460" y="580" width="120" height="50" as="geometry" />
        </mxCell>
        <mxCell id="pquyDXdbb19FtTBMJt0e-30" value="" style="edgeStyle=orthogonalEdgeStyle;rounded=0;orthogonalLoop=1;jettySize=auto;html=1;" edge="1" parent="1" source="pquyDXdbb19FtTBMJt0e-8" target="pquyDXdbb19FtTBMJt0e-10">
          <mxGeometry relative="1" as="geometry" />
        </mxCell>
        <mxCell id="pquyDXdbb19FtTBMJt0e-8" value="Continue to Next Question?" style="rhombus;whiteSpace=wrap;html=1;" vertex="1" parent="1">
          <mxGeometry x="295" y="620" width="130" height="110" as="geometry" />
        </mxCell>
        <mxCell id="pquyDXdbb19FtTBMJt0e-31" value="" style="edgeStyle=orthogonalEdgeStyle;rounded=0;orthogonalLoop=1;jettySize=auto;html=1;" edge="1" parent="1" source="pquyDXdbb19FtTBMJt0e-10" target="pquyDXdbb19FtTBMJt0e-12">
          <mxGeometry relative="1" as="geometry" />
        </mxCell>
        <mxCell id="pquyDXdbb19FtTBMJt0e-10" value="Display Final Score" style="rounded=0;whiteSpace=wrap;html=1;" vertex="1" parent="1">
          <mxGeometry x="425" y="790" width="120" height="60" as="geometry" />
        </mxCell>
        <mxCell id="pquyDXdbb19FtTBMJt0e-12" value="Oval" style="ellipse;whiteSpace=wrap;html=1;" vertex="1" parent="1">
          <mxGeometry x="425" y="920" width="120" height="60" as="geometry" />
        </mxCell>
        <mxCell id="pquyDXdbb19FtTBMJt0e-34" value="YES" style="text;html=1;align=center;verticalAlign=middle;resizable=0;points=[];autosize=1;strokeColor=none;fillColor=none;" vertex="1" parent="1">
          <mxGeometry x="455" y="468" width="50" height="30" as="geometry" />
        </mxCell>
        <mxCell id="pquyDXdbb19FtTBMJt0e-35" value="NO" style="text;html=1;align=center;verticalAlign=middle;resizable=0;points=[];autosize=1;strokeColor=none;fillColor=none;" vertex="1" parent="1">
          <mxGeometry x="210" y="468" width="40" height="30" as="geometry" />
        </mxCell>
        <mxCell id="pquyDXdbb19FtTBMJt0e-37" value="" style="endArrow=none;html=1;rounded=0;" edge="1" parent="1">
          <mxGeometry width="50" height="50" relative="1" as="geometry">
            <mxPoint x="80" y="760" as="sourcePoint" />
            <mxPoint x="360" y="760" as="targetPoint" />
          </mxGeometry>
        </mxCell>
        <mxCell id="pquyDXdbb19FtTBMJt0e-38" value="" style="endArrow=none;html=1;rounded=0;" edge="1" parent="1">
          <mxGeometry width="50" height="50" relative="1" as="geometry">
            <mxPoint x="80" y="760" as="sourcePoint" />
            <mxPoint x="80" y="280" as="targetPoint" />
            <Array as="points" />
          </mxGeometry>
        </mxCell>
        <mxCell id="pquyDXdbb19FtTBMJt0e-42" value="" style="endArrow=none;html=1;rounded=0;entryX=0;entryY=0.5;entryDx=0;entryDy=0;" edge="1" parent="1" target="pquyDXdbb19FtTBMJt0e-3">
          <mxGeometry width="50" height="50" relative="1" as="geometry">
            <mxPoint x="80" y="280" as="sourcePoint" />
            <mxPoint x="130" y="230" as="targetPoint" />
          </mxGeometry>
        </mxCell>
        <mxCell id="pquyDXdbb19FtTBMJt0e-43" value="YES" style="text;html=1;align=center;verticalAlign=middle;resizable=0;points=[];autosize=1;strokeColor=none;fillColor=none;" vertex="1" parent="1">
          <mxGeometry x="220" y="728" width="50" height="30" as="geometry" />
        </mxCell>
        <mxCell id="pquyDXdbb19FtTBMJt0e-44" value="NO" style="text;html=1;align=center;verticalAlign=middle;resizable=0;points=[];autosize=1;strokeColor=none;fillColor=none;" vertex="1" parent="1">
          <mxGeometry x="420" y="730" width="40" height="30" as="geometry" />
        </mxCell>
      </root>
    </mxGraphModel>
  </diagram>
</mxfile>
